General                          : ChattChitto RG - Movies Release
==========
Complete name                    : The Day The Earth Stood Still 2008 BDRip.mp4
Format                           : MPEG-4
Format profile                   : Base Media
Codec ID                         : isom
File size                        : 1.75 GiB
Duration                         : 1h 43mn
Overall bit rate                 : 2 417 Kbps
Encoded date                     : UTC 2009-12-16 21:12:23
Encoder                          : Recalled2Life
Ripper                           : Recalled2Life             

Video
==========
ID                               : 1
Format                           : AVC
Format/Info                      : Advanced Video Codec
Format profile                   : High@L4.1
Format settings, CABAC           : Yes
Format settings, ReFrames        : 2 frames
Codec ID                         : avc1
Codec ID/Info                    : Advanced Video Coding
Duration                         : 1h 43mn
Bit rate mode                    : Variable
Bit rate                         : 2 161 Kbps
Maximum bit rate                 : 6 910 Kbps
Width                            : 1 280 pixels
Height                           : 544 pixels
Display aspect ratio             : 2.35:1
Frame rate mode                  : Constant
Frame rate                       : 23.976 fps
Resolution                       : 24 bits
Colorimetry                      : 4:2:0
Scan type                        : Progressive
Bits/(Pixel*Frame)               : 0.129
Stream size                      : 1.56 GiB (89%)
Writing library                  : x264 core 68 r1183M f21daff
Encoded date                     : UTC 2009-12-15 16:10:31


Audio
==========
ID                               : 2
Format                           : AAC
Format/Info                      : Advanced Audio Codec
Format version                   : Version 4
Format profile                   : LC
Format settings, SBR             : No
Codec ID                         : 40
Duration                         : 1h 43mn
Bit rate mode                    : Variable
Bit rate                         : 253 Kbps
Maximum bit rate                 : 365 Kbps
Channel(s)                       : 6 channels
Channel positions                : Front: L C R, Rear: L R, LFE
Sampling rate                    : 48.0 KHz
Resolution                       : 16 bits
Stream size                      : 187 MiB (10%)
Encoded date                     : UTC 2009-12-16 21:13:19
Subtitles                        : English/Spanish



IMDB Link: http://www.imdb.com/title/tt0970416/



Plot:
------
Renowned scientist Dr. Helen Benson finds herself face to face with an alien called Klaatu, who travels across the universe to warn of an impending global crisis. When forces beyond Helena's control treat the extraterrestrial as a hostile and deny his request to address the world's leaders, she and her estranged stepson Jacob quickly discover the deadly ramifications of Klaatu's claim that he is "a friend to the Earth". Now Helen must find a way to convince the entity who was sent to destroy us that mankind is worth saving--but it may be too late. The process has begun.


Screen-Shots:
--------------



Encoder Notes..: ChattChitto RG Encourages Burning this Film with ConvertXtoDVD.
Original Source: Retail Blue-Ray9 disk: MPEG-4 AVC Video/DTS-HD Master Audio 5.1 Audio
26.2Gb total size.
Enhanced for your viewing pleasure ;)